:SAMPLES-PER-SECOND 30
:FRAME-RANGE 1-3549
:FULLY-SPECIFIED
:DEGREES
1775
root  14.0822 37.7572 -0.206952 -5.63605 44.4916 -7.50647
RightUpLeg  -21.9915 0.299492 10.206
RightLeg  30.5306 -9.12645 -6.02891
RightFoot  -8.65006 -0.0314624 -1.15406
RightToes  -1.11029e-010 1.2921e-014 -6.02303e-014
Spine  8.18182 -4.20137 9.36627
Spine1  0.758759 -3.70371 5.07995
HEad  6.2671 -31.5695 -1.70907
LeftShoulder1  1.48133 -0.39749 -31.9208
LeftArm  17.7654 15.7637 -32.798
LeftForeArm  -0.425208 -22.3683 -5.34662
LeftHand  0.226555 -1.65081 -3.60244
RightShoulder  2.70257 1.34248 48.9663
RightArm  3.2429 -3.33994 9.6983
RightForeArm  9.3386 4.41953 15.5876
RightHand  0.34162 4.30996 3.80332
LeftUpLeg  -5.70228 10.0245 10.2751
LeftLeg  59.568 -0.510694 -0.397978
LeftFoot  16.9593 2.31729 -9.59156
LeftToes  -1.9349e-011 -1.19469e-011 -2.02219e-012
1776
root  15.2035 38.0354 0.795239 -5.33362 43.3849 -6.58093
RightUpLeg  -18.4983 0.855619 9.5057
RightLeg  29.7854 -8.70977 -5.60454
RightFoot  -10.7675 -0.0701211 -0.553954
RightToes  -1.11029e-010 1.2921e-014 -6.02303e-014
Spine  8.09519 -3.75632 9.33842
Spine1  0.714658 -3.06093 4.38655
HEad  6.05404 -36.6353 -0.863642
LeftShoulder1  1.49761 -0.458851 -31.7442
LeftArm  15.3418 15.1508 -33.051
LeftForeArm  3.01324 -24.7476 -5.1402
LeftHand  0.253427 -1.9562 -3.85026
RightShoulder  4.33554 4.14727 49.6799
RightArm  15.2862 -0.414733 11.4095
RightForeArm  -0.0883207 13.6272 12.1061
RightHand  0.271109 4.5607 2.86993
LeftUpLeg  -10.5325 10.7694 9.81446
LeftLeg  63.9721 -0.476171 -0.435678
LeftFoot  10.6729 1.67793 -8.94987
LeftToes  -1.9349e-011 -1.19469e-011 -2.02219e-012
1777
root  16.3384 38.3336 1.79992 -4.71539 42.308 -5.39355
RightUpLeg  -14.8337 1.18676 8.49248
RightLeg  28.2983 -8.01893 -4.91452
RightFoot  -12.5034 -0.0856267 -0.0982803
RightToes  -1.11029e-010 1.2921e-014 -6.02303e-014
Spine  7.76758 -3.33107 9.0167
Spine1  0.536635 -2.59066 3.79285
HEad  6.14319 -40.9358 -0.561144
LeftShoulder1  1.51144 -0.513546 -31.574
LeftArm  12.4695 15.0758 -33.046
LeftForeArm  5.5124 -26.8844 -5.49228
LeftHand  0.256647 -2.03047 -3.85541
RightShoulder  5.7508 6.64177 49.6725
RightArm  24.6899 2.35649 13.234
RightForeArm  -5.48714 20.997 6.43149
RightHand  0.232999 5.02795 2.28818
LeftUpLeg  -14.8889 11.6425 8.96464
LeftLeg  64.1823 -0.475685 -0.441565
LeftFoot  7.89401 1.4013 -8.54304
LeftToes  -1.9349e-011 -1.19469e-011 -2.02219e-012
1778
root  17.4964 38.6553 2.83089 -3.85889 41.2188 -3.93054
RightUpLeg  -10.8548 0.728735 7.1628
RightLeg  25.9639 -6.6271 -3.99315
RightFoot  -13.8808 -0.0842562 0.437412
RightToes  -1.11029e-010 1.2921e-014 -6.02303e-014
Spine  7.23464 -2.86456 8.42324
Spine1  0.279655 -2.16915 2.97657
HEad  6.13923 -44.6572 -0.542869
LeftShoulder1  1.52415 -0.568181 -31.3813
LeftArm  10.4035 15.2074 -32.8247
LeftForeArm  7.19223 -28.454 -5.76853
LeftHand  0.241559 -2.05652 -3.60377
RightShoulder  6.79877 8.6169 49.1456
RightArm  21.0603 4.96789 14.6507
RightForeArm  0.88801 26.744 5.70846
RightHand  0.200171 4.99659 1.93076
LeftUpLeg  -18.3091 12.6022 7.7158
LeftLeg  60.628 -0.437257 -0.28324
LeftFoot  5.09756 1.11788 -7.94551
LeftToes  -1.9349e-011 -1.19469e-011 -2.02219e-012
1779
root  18.6517 38.9756 3.87841 -2.92847 40.0143 -2.25012
RightUpLeg  -6.48832 -0.582476 5.43995
RightLeg  22.7959 -4.31903 -2.85078
RightFoot  -14.7994 -0.0846119 0.515012
RightToes  -1.11029e-010 1.2921e-014 -6.02303e-014
Spine  6.56334 -2.34905 7.32376
Spine1  0.221725 -1.79685 2.1368
HEad  5.91499 -47.5704 -0.44543
LeftShoulder1  1.54456 -0.625848 -31.3536
LeftArm  9.16484 15.3419 -32.2365
LeftForeArm  8.3236 -29.4449 -5.94355
LeftHand  0.20988 -2.021 -3.12669
RightShoulder  7.94791 10.7926 48.6959
RightArm  16.8211 7.39666 15.6295
RightForeArm  5.69698 31.7835 6.67689
RightHand  0.191677 4.85192 1.87102
LeftUpLeg  -20.3762 13.6106 6.32997
LeftLeg  53.4503 -0.565557 -0.358597
LeftFoot  2.21211 0.984997 -8.39253
LeftToes  -1.9349e-011 -1.19469e-011 -2.02219e-012
1780
root  19.7347 39.2179 4.89109 -1.95227 38.7212 -1.01099
RightUpLeg  -2.6742 -1.63273 3.90626
RightLeg  19.5482 -1.99167 -2.00842
RightFoot  -15.3268 -0.079543 0.695127
RightToes  -1.11029e-010 1.2921e-014 -6.02303e-014
Spine  5.91289 -1.86685 6.0936
Spine1  0.0875846 -1.53722 1.48612
HEad  5.08857 -49.6271 0.290726
LeftShoulder1  1.52011 -0.579759 -31.1753
LeftArm  8.39735 15.5053 -31.5999
LeftForeArm  8.8737 -29.8114 -6.00188
LeftHand  0.199161 -2.00251 -2.96737
RightShoulder  9.12952 13.0657 48.2424
RightArm  14.6113 9.65928 16.3822
RightForeArm  7.96777 36.3463 7.78516
RightHand  0.189059 4.52556 1.92321
LeftUpLeg  -21.5955 14.6254 5.29672
LeftLeg  43.1512 -0.727379 -0.347185
LeftFoot  1.10807 0.937999 -8.65111
LeftToes  -1.9349e-011 -1.19469e-011 -2.02219e-012
1781
root  20.7998 39.4094 5.87729 -1.05731 37.2403 -0.0266113
RightUpLeg  1.10413 -2.53326 2.34762
RightLeg  15.9414 0.504116 -1.36172
RightFoot  -15.4562 -0.0826268 0.611645
RightToes  -1.11029e-010 1.2921e-014 -6.02303e-014
Spine  5.10169 -1.47476 4.90141
Spine1  0.302239 -1.30121 0.681241
HEad  4.24086 -50.9173 1.05784
LeftShoulder1  1.49989 -0.538132 -31.0571
LeftArm  8.25617 15.7615 -30.8491
LeftForeArm  8.3018 -29.3643 -5.92529
LeftHand  0.193721 -1.99944 -2.88316
RightShoulder  10.3043 15.3507 47.8245
RightArm  13.7806 11.896 16.9148
RightForeArm  9.92031 39.7908 8.70679
RightHand  0.177994 4.36205 1.83471
LeftUpLeg  -21.2285 15.7896 4.43133
LeftLeg  29.511 -1.04431 -0.305314
LeftFoot  1.26856 0.968383 -8.82298
LeftToes  -1.9349e-011 -1.19469e-011 -2.02219e-012
1782
root  21.88 39.5084 6.82665 -0.124939 35.5165 0.704834
RightUpLeg  4.43468 -3.08686 0.803317
RightLeg  12.5461 2.99289 -1.10251
RightFoot  -15.712 -0.063859 1.11351
RightToes  -1.11029e-010 1.2921e-014 -6.02303e-014
Spine  4.19243 -1.14544 3.85563
Spine1  0.583358 -1.02097 -0.192551
HEad  3.42689 -51.6774 1.75235
LeftShoulder1  1.4877 -0.514391 -30.9719
LeftArm  9.08526 16.2473 -30.0996
LeftForeArm  6.32591 -28.1191 -5.73644
LeftHand  0.191645 -1.9066 -2.98132
RightShoulder  11.368 17.431 47.4863
RightArm  14.0498 13.9163 17.3137
RightForeArm  12.1718 41.8888 9.24888
RightHand  0.150756 4.35587 1.51216
LeftUpLeg  -19.5433 16.1712 4.00847
LeftLeg  13.7891 -2.18896 -0.549104
LeftFoot  1.89853 1.19002 -10.3331
LeftToes  -1.9349e-011 -1.19469e-011 -2.02219e-012
